<svg width="87" height="33" viewBox="0 0 87 33" fill="none" xmlns="http://www.w3.org/2000/svg">
<path d="M4.76 28.016V3.536L0.632 1.856L0.92 0.799998C8.152 0.543998 12.696 0.415998 14.552 0.415998C25.24 0.415998 30.584 5.888 30.584 16.832C30.584 22.528 29.064 26.544 26.024 28.88C23.016 31.216 18.248 32.384 11.72 32.384C10.92 32.384 7.32 32.256 0.92 32L0.632 30.944L3.272 29.84C3.848 29.616 4.232 29.376 4.424 29.12C4.648 28.864 4.76 28.496 4.76 28.016ZM15.272 3.056H10.136C9.272 3.056 8.84 3.456 8.84 4.256V29.456C10.088 29.584 11.688 29.648 13.64 29.648C17.864 29.648 21.032 28.96 23.144 27.584C25.128 25.152 26.12 21.728 26.12 17.312C26.12 12.864 25.192 9.376 23.336 6.848C21.48 4.32 18.792 3.056 15.272 3.056ZM41.0731 4.16C41.0731 4.352 41.1211 4.56 41.2171 4.784L48.9931 26.816L57.0571 3.536L52.9291 1.856L53.2171 0.799998H63.8251L64.1131 1.856L61.4731 2.96C60.9291 3.184 60.5771 3.392 60.4171 3.584C60.2891 3.776 60.1131 4.176 59.8891 4.784L50.2891 31.52L47.3611 32.384L46.4011 32L36.0811 3.392L32.3371 1.856L32.6251 0.799998H44.3851L44.6731 1.856L42.0331 2.96C41.3931 3.216 41.0731 3.616 41.0731 4.16ZM81.2971 4.256C80.2411 3.68 78.5931 3.392 76.3531 3.392C74.1451 3.392 72.3371 3.984 70.9291 5.168C70.5451 5.776 70.3531 6.656 70.3531 7.808C70.3531 10.272 71.6651 12 74.2891 12.992L80.5291 15.392C84.6251 16.96 86.6731 19.792 86.6731 23.888C86.6731 26.672 85.6971 28.784 83.7451 30.224C81.7931 31.664 79.2651 32.384 76.1611 32.384C71.8731 32.384 68.3371 31.072 65.5531 28.448L68.6251 23.216L69.7771 23.552L70.4971 28.16C71.6811 28.992 73.3931 29.408 75.6331 29.408C80.4011 29.408 82.7851 27.792 82.7851 24.56C82.7851 23.248 82.3691 22.176 81.5371 21.344C80.7051 20.512 79.4091 19.76 77.6491 19.088L72.1291 16.976C68.3851 15.536 66.5131 12.944 66.5131 9.2C66.5131 6.384 67.5051 4.224 69.4891 2.72C71.4731 1.184 74.0011 0.415998 77.0731 0.415998C80.8171 0.415998 83.8251 1.728 86.0971 4.352L82.6891 9.104L81.5371 8.768L81.2971 4.256Z" fill="#141414"/>
</svg>
